<svg xmlns="http://www.w3.org/2000/svg" width="201.342" height="58.993" viewBox="0 0 201.342 58.993">
  <g id="Group_29" data-name="Group 29" transform="translate(1284.485 -117.979)">
    <path id="Path_28" data-name="Path 28" d="M119.877,174.62c1.306-7.605,2.614-15.211,4.04-22.833.356-2.283-.357-4.281-2.377-5.322H159.8a3.428,3.428,0,0,1,3.446,4.248c-.657,3.7-1.307,7.387-2.02,11.081a5.217,5.217,0,0,1-4.99,4.248H133.9q-.356,2.164-.712,4.331a5.432,5.432,0,0,1-4.99,4.247Zm28.04-15.009a1.522,1.522,0,0,0,1.426-1.092c.254-1.508.492-3.018.832-4.533.135-.6-.476-1.092-1.07-1.092H136.273c-.357,2.25-.832,4.483-1.188,6.716Z" transform="translate(-1404.362 -8.871)" fill="#f2f2f2"/>
    <path id="Path_29" data-name="Path 29" d="M233.8,150.713c-1.141,6.572-2.425,13.1-3.565,19.66a5.266,5.266,0,0,1-4.99,4.247H193.4a3.486,3.486,0,0,1-3.564-4.247q1.837-9.812,3.564-19.66a5.265,5.265,0,0,1,4.99-4.248h31.843a3.508,3.508,0,0,1,3.565,4.248M203.977,168.19h13.07a1.367,1.367,0,0,0,1.189-1.092c.73-4.362,1.541-8.731,2.376-13.112a.923.923,0,0,0-.95-1.092H206.709a1.3,1.3,0,0,0-1.306,1.092c-.835,4.381-1.542,8.748-2.376,13.112a.874.874,0,0,0,.95,1.092" transform="translate(-1427.76 -8.871)" fill="#f2f2f2"/>
    <path id="Path_30" data-name="Path 30" d="M291.746,146.465H307.31c4.278,4.936,8.555,9.872,12.951,14.791q.357-1.965.713-3.928c.357-2.2.713-4.4,1.189-6.616a5.117,5.117,0,0,1,4.99-4.247h8.317q-2.139,11.962-4.277,23.907a5.432,5.432,0,0,1-4.99,4.248h-7.961c-4.4-4.919-8.793-9.855-12.951-14.791-.713,3.526-1.307,7.035-1.9,10.543a5.431,5.431,0,0,1-4.991,4.248h-8.317c1.307-7.605,2.614-15.212,4.04-22.834.357-2.283-.357-4.281-2.376-5.322" transform="translate(-1461.343 -8.871)" fill="#f2f2f2"/>
    <path id="Path_31" data-name="Path 31" d="M387.009,157.328c-.476,2.148-.832,4.3-1.188,6.43-.476,2.216-.832,4.416-1.189,6.615a5.321,5.321,0,0,1-4.99,4.247h-8.436c1.306-7.236,2.495-14.472,3.8-21.725H361.82c.357-2.131.832-4.281,1.189-6.43h39.208a13.755,13.755,0,0,1-.475,2.183,5.321,5.321,0,0,1-4.99,4.247h-9.03l-.712,4.433" transform="translate(-1485.36 -8.871)" fill="#f2f2f2"/>
    <path id="Path_32" data-name="Path 32" d="M265.586,122.493l2.858,5.316L240.57,141.581l-6.6-12.139-51.32,24.49-.336,1.749a24.013,24.013,0,0,0-.456,7.907l.7,4.678,45.918-21.538,6.624,12.2,40.514-20.6,3.487,5.262,15.253-24.182Z" transform="translate(-1425.059 0.187)" fill="#d5a206"/>
    <path id="Path_33" data-name="Path 33" d="M262.808,120.569l3.143,5.845-25.493,12.6-6.59-12.124L180.8,152.208l-.463,2.409a25.263,25.263,0,0,0-.466,8.355l.964,6.444,46.4-21.764,6.644,12.233,40.611-20.646,3.969,5.988,17.819-28.248Zm15.6,19.758-3.005-4.535L234.982,156.34l-6.6-12.162-45.437,21.312-.436-2.912a22.778,22.778,0,0,1,.448-7.46l.21-1.089,49.574-23.657,6.606,12.154s23.336-10.016,30.256-14.949-2.574-4.786-2.574-4.786l24.068-2.582Z" transform="translate(-1424.39 1)" fill="#103c64"/>
    <path id="Path_34" data-name="Path 34" d="M356.161,133.743a11.092,11.092,0,1,0,11.091,11.092,11.1,11.1,0,0,0-11.091-11.092m0,17.527a6.435,6.435,0,1,1,6.435-6.435,6.442,6.442,0,0,1-6.435,6.435" transform="translate(-1479.752 -4.612)" fill="#fff"/>
    <path id="Path_35" data-name="Path 35" d="M268.422,174.62h-8.317c1.307-7.605,2.614-15.211,4.039-22.833.357-2.283-.357-4.281-2.376-5.322H277.69a6.235,6.235,0,0,0-.238,1.461c-.594,3.139-1.188,6.279-1.664,9.4-.476,2.148-.832,4.3-1.187,6.429-.357,2.217-.713,4.416-1.188,6.616a5.322,5.322,0,0,1-4.99,4.247" transform="translate(-1451.308 -8.871)" fill="#f2f2f2"/>
    <path id="Path_36" data-name="Path 36" d="M165.508,196.275v5.563h-.768v-5.563h-1.556v-.768h3.862v.768Z" transform="translate(-1418.86 -25.29)" fill="#093e7a"/>
    <path id="Path_37" data-name="Path 37" d="M165.632,201.962h-1.267V196.4h-1.555v-1.268h4.36V196.4h-1.537Zm-.768-.5h.269V195.9h1.537v-.27h-3.362v.27h1.555Z" transform="translate(-1418.735 -25.164)" fill="#00cad6"/>
    <path id="Path_38" data-name="Path 38" d="M178.688,198.9v3.009h-.768V201.9H177.9v-6.4h.787v2.635h3.065v-2.635h.75v6.413h-.75V198.9Z" transform="translate(-1423.787 -25.285)" fill="#0e3151"/>
    <path id="Path_39" data-name="Path 39" d="M182.627,202.031h-1.249v-3.009h-2.566v3.009l-1.268-.009-.019-.249v-6.654h1.287v2.635h2.566v-2.635h1.249Zm-.75-.5h.251v-5.915h-.251v2.635h-3.564v-2.635h-.289v5.915h.288v-3.009h3.564Z" transform="translate(-1423.661 -25.159)" fill="#00cad6"/>
    <path id="Path_40" data-name="Path 40" d="M197.332,201.147v.76h-3.568V201.9h-.019v-6.4h3.422v.76h-2.634v1.913h2.324v.741h-2.324v2.241Z" transform="translate(-1429.092 -25.285)" fill="#093e7a"/>
    <path id="Path_41" data-name="Path 41" d="M197.456,202.031l-4.067-.009-.019-.249v-6.654h3.921v1.259h-2.635v1.414h2.324v1.24h-2.324v1.742h2.8Zm-3.586-.5h3.087v-.261h-2.8v-2.74h2.324v-.242h-2.324v-2.411h2.635v-.261h-2.923Z" transform="translate(-1428.966 -25.159)" fill="#00cad6"/>
    <path id="Path_42" data-name="Path 42" d="M227.3,198.105a4.087,4.087,0,0,1,.046.576,3.412,3.412,0,0,1-.407,1.656,3.1,3.1,0,0,1-1.116,1.185,2.965,2.965,0,0,1-1.579.434,3,3,0,0,1-1.592-.434,3.113,3.113,0,0,1-1.126-1.189,3.453,3.453,0,0,1-.412-1.679v-.009a3.455,3.455,0,0,1,.412-1.68,3.113,3.113,0,0,1,1.126-1.189,3,3,0,0,1,1.592-.434,3.028,3.028,0,0,1,1.455.357,3.135,3.135,0,0,1,1.116,1.006l-.558.557a3.125,3.125,0,0,0-.956-.878,2.183,2.183,0,0,0-1.057-.265,2.259,2.259,0,0,0-1.2.329,2.306,2.306,0,0,0-.846.906,2.686,2.686,0,0,0-.306,1.281,2.835,2.835,0,0,0,.306,1.317,2.341,2.341,0,0,0,.846.933,2.3,2.3,0,0,0,2.352.028,2.408,2.408,0,0,0,.842-.852,2.627,2.627,0,0,0,.357-1.217h-2.059v-.741Z" transform="translate(-1438.255 -25.234)" fill="#093e7a"/>
    <path id="Path_43" data-name="Path 43" d="M224.12,202.082a3.258,3.258,0,0,1-1.722-.471,3.362,3.362,0,0,1-1.215-1.283,3.9,3.9,0,0,1,0-3.606,3.325,3.325,0,0,1,4.509-1.367,3.4,3.4,0,0,1,1.2,1.084l.118.171-.907.907-.173-.228a2.889,2.889,0,0,0-.877-.81,2.048,2.048,0,0,0-2.006.057,2.071,2.071,0,0,0-.756.81,2.448,2.448,0,0,0-.277,1.164,2.6,2.6,0,0,0,.279,1.2,2.113,2.113,0,0,0,.757.836,2.041,2.041,0,0,0,2.091.025,2.143,2.143,0,0,0,.755-.764,2.314,2.314,0,0,0,.3-.84h-2.032v-1.241h3.229l.031.214a4.393,4.393,0,0,1,.049.612,3.678,3.678,0,0,1-.438,1.774,3.349,3.349,0,0,1-1.205,1.279,3.22,3.22,0,0,1-1.708.471m0-6.615a2.762,2.762,0,0,0-1.462.4,2.872,2.872,0,0,0-1.036,1.1,3.4,3.4,0,0,0,0,3.128,2.81,2.81,0,0,0,4.974.005,3.186,3.186,0,0,0,.377-1.537c0-.1-.006-.21-.017-.327h-2.293v.243h2.073l-.015.263a2.89,2.89,0,0,1-.391,1.33,2.663,2.663,0,0,1-.929.938,2.55,2.55,0,0,1-2.612-.031,2.6,2.6,0,0,1-.936-1.03,3.1,3.1,0,0,1-.334-1.432,2.942,2.942,0,0,1,.336-1.4,2.534,2.534,0,0,1,3.441-1.072,3.1,3.1,0,0,1,.857.725l.21-.21a2.872,2.872,0,0,0-.906-.762,2.8,2.8,0,0,0-1.337-.328" transform="translate(-1438.129 -25.11)" fill="#00cad6"/>
    <path id="Path_44" data-name="Path 44" d="M240.519,199.55l-.851,2.306h-.824l.156-.4,2.269-6.113h.531l2.333,6.515h-.814l-.824-2.306Zm1.7-.768-.7-1.958-.723,1.958Z" transform="translate(-1444.19 -25.234)" fill="#093e7a"/>
    <path id="Path_45" data-name="Path 45" d="M244.3,201.98h-1.344l-.824-2.306h-1.626l-.851,2.306H238.3l.287-.742,2.328-6.272h.879Zm-.993-.5h.285l-2.155-6.016h-.182l-2.234,6.016h.285l.851-2.306h2.326Zm-.919-2.576h-2.14l1.084-2.936Zm-1.424-.5h.714l-.353-.979Z" transform="translate(-1444.007 -25.108)" fill="#00cad6"/>
    <path id="Path_46" data-name="Path 46" d="M256.495,197.021v4.886h-.768V201.9h-.019v-6.4h.641l2.1,2.956,2.095-2.956h.631v6.414h-.778v-4.886l-1.711,2.415h-.457Z" transform="translate(-1449.835 -25.285)" fill="#093e7a"/>
    <path id="Path_47" data-name="Path 47" d="M261.294,202.031h-1.277v-4.352l-1.332,1.881h-.715l-1.351-1.888v4.359l-1.268-.009-.018-.249v-6.654h1.018l1.966,2.773,1.966-2.773h1.01Zm-.778-.5h.279v-5.915h-.253l-2.224,3.137-2.224-3.137h-.262v5.915h.288v-5.414l2.107,2.943h.2l2.089-2.95Z" transform="translate(-1449.71 -25.159)" fill="#00cad6"/>
    <path id="Path_48" data-name="Path 48" d="M276.432,201.147v.76h-3.568V201.9h-.019v-6.4h3.422v.76h-2.634v1.913h2.324v.741h-2.324v2.241Z" transform="translate(-1455.573 -25.285)" fill="#093e7a"/>
    <path id="Path_49" data-name="Path 49" d="M276.556,202.031l-4.067-.009-.019-.249v-6.654h3.921v1.259h-2.635v1.414h2.324v1.24h-2.324v1.742h2.8Zm-3.586-.5h3.087v-.261h-2.8v-2.74h2.324v-.242h-2.324v-2.411h2.635v-.261h-2.923Z" transform="translate(-1455.447 -25.159)" fill="#00cad6"/>
    <path id="Path_50" data-name="Path 50" d="M301,195.493v6.414h-.768V201.9h-.019v-6.4Z" transform="translate(-1464.736 -25.285)" fill="#093e7a"/>
    <path id="Path_51" data-name="Path 51" d="M301.127,202.031l-1.268-.009-.019-.249v-6.654h1.287Zm-.787-.5h.288v-5.915h-.289Z" transform="translate(-1464.61 -25.159)" fill="#00cad6"/>
    <path id="Path_52" data-name="Path 52" d="M311.144,201.669a2.289,2.289,0,0,1-.833-.7l.485-.549a2.061,2.061,0,0,0,1.382.722,1.3,1.3,0,0,0,.709-.182.781.781,0,0,0,.361-.486,1.041,1.041,0,0,0,.019-.155.906.906,0,0,0-.16-.494,1.372,1.372,0,0,0-.444-.421c-.037-.019-.218-.117-.544-.3a7.734,7.734,0,0,1-.746-.452,2.138,2.138,0,0,1-.718-.782,1.756,1.756,0,0,1-.206-.965,1.466,1.466,0,0,1,.516-1.034,1.712,1.712,0,0,1,1.149-.394,2.39,2.39,0,0,1,1.08.261,2.458,2.458,0,0,1,.869.718l-.576.466a2.9,2.9,0,0,0-.709-.526,1.522,1.522,0,0,0-.663-.151.929.929,0,0,0-.65.224.757.757,0,0,0-.247.59.982.982,0,0,0,.156.521,1.561,1.561,0,0,0,.439.458,4.356,4.356,0,0,0,.448.274c.189.1.314.174.375.21l.4.22a2.205,2.205,0,0,1,.75.692,1.568,1.568,0,0,1,.265.873,1.761,1.761,0,0,1-.027.3,1.553,1.553,0,0,1-.623.947,1.96,1.96,0,0,1-1.189.361,2.363,2.363,0,0,1-1.07-.251" transform="translate(-1468.115 -25.28)" fill="#093e7a"/>
    <path id="Path_53" data-name="Path 53" d="M312.052,202.045a2.615,2.615,0,0,1-1.181-.278,2.529,2.529,0,0,1-.923-.775l-.12-.162.793-.9.188.185a1.844,1.844,0,0,0,1.206.651,1.064,1.064,0,0,0,.576-.144.54.54,0,0,0,.253-.333c0-.037.011-.074.011-.1a.653.653,0,0,0-.12-.359,1.145,1.145,0,0,0-.365-.344c-.017-.007-.2-.108-.534-.291a7.905,7.905,0,0,1-.77-.469,2.381,2.381,0,0,1-.794-.869,2.017,2.017,0,0,1-.233-1.1,1.714,1.714,0,0,1,.6-1.2,2.31,2.31,0,0,1,2.5-.167,2.731,2.731,0,0,1,.957.791l.146.193-.935.756-.159-.151a2.643,2.643,0,0,0-.643-.481,1,1,0,0,0-1.039.032.511.511,0,0,0-.165.406.738.738,0,0,0,.12.391,1.312,1.312,0,0,0,.371.384,4.111,4.111,0,0,0,.423.259c.194.106.321.178.383.215l.394.215a2.473,2.473,0,0,1,.84.774,1.829,1.829,0,0,1,.305,1.01,2,2,0,0,1-.031.345,1.807,1.807,0,0,1-.72,1.106,2.214,2.214,0,0,1-1.337.409m-1.576-1.193a2.057,2.057,0,0,0,.617.47h0a2.126,2.126,0,0,0,.958.225,1.7,1.7,0,0,0,1.042-.313,1.3,1.3,0,0,0,.526-.8,1.51,1.51,0,0,0,.021-.248,1.313,1.313,0,0,0-.225-.737,1.956,1.956,0,0,0-.667-.613l-.4-.216c-.068-.041-.19-.109-.375-.211a4.652,4.652,0,0,1-.474-.291,1.806,1.806,0,0,1-.507-.531,1.243,1.243,0,0,1-.192-.65,1,1,0,0,1,.329-.775,1.483,1.483,0,0,1,1.589-.113,2.73,2.73,0,0,1,.611.422l.211-.171a2.236,2.236,0,0,0-.625-.462,2.157,2.157,0,0,0-.968-.234,1.453,1.453,0,0,0-.987.335,1.216,1.216,0,0,0-.43.865,1.507,1.507,0,0,0,.178.828,1.9,1.9,0,0,0,.637.691,7.522,7.522,0,0,0,.727.442c.321.177.5.274.534.292a1.659,1.659,0,0,1,.543.508,1.153,1.153,0,0,1,.2.631,1.332,1.332,0,0,1-.021.2,1.037,1.037,0,0,1-.474.655,1.547,1.547,0,0,1-.843.222,2.122,2.122,0,0,1-1.364-.615Z" transform="translate(-1467.954 -25.155)" fill="#00cad6"/>
    <path id="Path_54" data-name="Path 54" d="M339.481,201.523a3.1,3.1,0,0,1-1.126-1.189,3.445,3.445,0,0,1-.412-1.678v-.009a3.448,3.448,0,0,1,.412-1.68,3.113,3.113,0,0,1,1.126-1.189,3.142,3.142,0,0,1,3.188,0,3.074,3.074,0,0,1,1.126,1.189,3.685,3.685,0,0,1,0,3.367,3.065,3.065,0,0,1-1.122,1.189,3.15,3.15,0,0,1-3.192,0m2.791-.636a2.386,2.386,0,0,0,.851-.929,2.75,2.75,0,0,0,.311-1.3,2.7,2.7,0,0,0-.311-1.3,2.335,2.335,0,0,0-.851-.911,2.347,2.347,0,0,0-2.4,0,2.306,2.306,0,0,0-.846.906,2.681,2.681,0,0,0-.307,1.281,2.83,2.83,0,0,0,.307,1.318,2.344,2.344,0,0,0,.846.933,2.291,2.291,0,0,0,2.4,0" transform="translate(-1477.366 -25.234)" fill="#093e7a"/>
    <path id="Path_55" data-name="Path 55" d="M340.948,202.082a3.262,3.262,0,0,1-1.722-.471,3.362,3.362,0,0,1-1.214-1.283,3.894,3.894,0,0,1,0-3.605,3.328,3.328,0,0,1,4.662-1.283,3.326,3.326,0,0,1,1.216,1.284,3.934,3.934,0,0,1,0,3.6,3.332,3.332,0,0,1-1.211,1.284,3.277,3.277,0,0,1-1.731.471m0-6.615a2.76,2.76,0,0,0-1.462.4,2.872,2.872,0,0,0-1.036,1.1,3.4,3.4,0,0,0,0,3.128,2.873,2.873,0,0,0,1.036,1.1,2.911,2.911,0,0,0,2.933,0,2.838,2.838,0,0,0,1.032-1.095,3.437,3.437,0,0,0,0-3.131,2.837,2.837,0,0,0-1.036-1.094,2.793,2.793,0,0,0-1.467-.4m0,5.883a2.462,2.462,0,0,1-1.331-.377,2.585,2.585,0,0,1-.935-1.03,3.086,3.086,0,0,1-.335-1.432,2.94,2.94,0,0,1,.336-1.4,2.56,2.56,0,0,1,.937-1,2.557,2.557,0,0,1,3.6,1.006,2.953,2.953,0,0,1,.341,1.413,3.017,3.017,0,0,1-.339,1.42,2.645,2.645,0,0,1-.939,1.024,2.469,2.469,0,0,1-1.331.376m0-5.106a2.019,2.019,0,0,0-1.068.293,2.07,2.07,0,0,0-.756.81,2.448,2.448,0,0,0-.277,1.164,2.592,2.592,0,0,0,.279,1.2,2.1,2.1,0,0,0,.757.836,2.026,2.026,0,0,0,2.133,0h0a2.155,2.155,0,0,0,.763-.834,2.525,2.525,0,0,0,.281-1.187,2.469,2.469,0,0,0-.281-1.177,2.1,2.1,0,0,0-.761-.816,2.019,2.019,0,0,0-1.068-.293" transform="translate(-1477.241 -25.11)" fill="#00cad6"/>
    <path id="Path_56" data-name="Path 56" d="M357.307,196.994v4.913h-.75V201.9h-.019v-6.4h.622l3.578,4.859v-4.859h.76v6.414h-.585Z" transform="translate(-1483.592 -25.285)" fill="#0e3151"/>
    <path id="Path_57" data-name="Path 57" d="M361.621,202.031h-.961l-3.229-4.4v4.4l-1.249-.009-.019-.249v-6.654h1l3.2,4.349v-4.349h1.258Zm-.708-.5h.209v-5.915h-.26v5.369l-3.953-5.369h-.247v5.915h.269v-5.426Z" transform="translate(-1483.466 -25.159)" fill="#00cad6"/>
    <path id="Path_58" data-name="Path 58" d="M348.569,146.006a8.763,8.763,0,1,1,8.763,8.764,8.763,8.763,0,0,1-8.763-8.764" transform="translate(-1480.924 -5.784)" fill="#093e7a"/>
  </g>
</svg>
