<svg xmlns="http://www.w3.org/2000/svg" width="92.83" height="64.056" viewBox="0 0 92.83 64.056">
  <g id="soccer-ball-svgrepo-com" transform="translate(0.001 -147.61)">
    <g id="Group_1" data-name="Group 1" transform="translate(-0.001 147.61)">
      <path id="Path_1" data-name="Path 1" d="M36.079,180.669a29.629,29.629,0,0,1,29.63-29.63,31.057,31.057,0,0,1,3.314.185,7.512,7.512,0,0,0-1.442-.906c-16.433-7.856-31.667,3.187-39.649,10.253a2.725,2.725,0,0,0,.429,4.376c3.587,2.193.068,12.125-6.2,9.142-.39-.185-.994-.565-1.394-.75C11.829,169.1-.657,179.45.026,180.562c.936,1.521,8.46-7.271,27.817,15.331,13.148,15.332,26.365,16.462,34.406,15.536.8-.088,2.827-.595,3.246-1.14A29.626,29.626,0,0,1,36.079,180.669Z" transform="translate(0.001 -147.61)" fill="#00cad6"/>
      <path id="Path_2" data-name="Path 2" d="M447.7,224.446a27.026,27.026,0,0,0-15.185-14.133,27.458,27.458,0,0,0-5.234-1.384c-.487-.078-.984-.146-1.472-.195s-.994-.088-1.491-.117-.994-.029-1.481-.029-.975.02-1.452.049-.965.078-1.452.127-.965.127-1.443.2-.955.175-1.433.283-.945.224-1.413.361c-.214.058-.419.127-.634.185a27.106,27.106,0,0,0,8.022,52.992h.224a27.139,27.139,0,0,0,26.881-28.265A27.5,27.5,0,0,0,447.7,224.446ZM423.04,210.732h.049a23.822,23.822,0,0,0-7.212,2.8c-.136.078-.273.166-.409.244a12.886,12.886,0,0,0-5.955.945A25.017,25.017,0,0,1,423.04,210.732ZM399.1,242.769a24.863,24.863,0,0,1,.555-15.8,25.211,25.211,0,0,1,3.129-5.867,12.475,12.475,0,0,0,.867,3.723,23.953,23.953,0,0,0-2.612,10.429,25.7,25.7,0,0,0,.312,4.737C400.506,241.005,399.59,242.155,399.1,242.769Zm5.01-2.174c-1-2.748-.78-5.984-.273-8.772a20.1,20.1,0,0,1,.8-3.1,16.911,16.911,0,0,1,.643-1.647c.136-.3.478-1.413.77-1.55l7.018-3.2,10.195,8.743-1.667,9.863L409.4,246.268c-.2.068-1.1-.7-1.286-.828-.409-.292-.79-.6-1.17-.916a9.719,9.719,0,0,1-1.91-2.086A9.067,9.067,0,0,1,404.112,240.6ZM417.7,260.079a25.4,25.4,0,0,1-3.392-1,24.825,24.825,0,0,1-8.9-5.712,24.32,24.32,0,0,0,3.909,1.462,22.856,22.856,0,0,0,8.986,5.2A5.217,5.217,0,0,1,417.7,260.079Zm12.563-3.606a23.643,23.643,0,0,1-6.092,2.534,21.829,21.829,0,0,1-2.973-.39c-.487-.1-1-.214-1.55-.37a21.181,21.181,0,0,1-8.47-4.542,17.079,17.079,0,0,1-.6-5.312l11.959-5.224,1.871.906,6.189,2.992Zm-2.515-27.583-2.749.448-10.244-8.772,2.144-4.8c2.632-1.579,11.462-3.314,11.462-3.314,4.961,2.573,7.232,4.942,8.109,6.062l-2.554,9.376ZM444.4,248.6a24.849,24.849,0,0,1-8.616,8.548.443.443,0,0,0-.224-.088,17.2,17.2,0,0,1-2.856-.819l.341-9.63,6.745-7.018,6.189.741C446.266,242.662,444.99,246.853,444.4,248.6Zm1.725-10.7-6.092-.731-3.909-8.129,2.563-9.405c1.4.38,3.236.887,4.4,1.209a24.98,24.98,0,0,1,4.045,8.392A28.783,28.783,0,0,1,446.13,237.9Z" transform="translate(-357.331 -202.645)" fill="#faf9f9"/>
    </g>
  </g>
</svg>
