<svg xmlns="http://www.w3.org/2000/svg" width="70.122" height="87.001" viewBox="0 0 70.122 87.001">
  <g id="prize-badge-with-star-and-ribbon-svgrepo-com" transform="translate(-2.268 0)">
    <path id="Path_7" data-name="Path 7" d="M44.044,56.486a8.017,8.017,0,0,1,7.2-4.156c3.178-.037,4.781-1.656,4.833-4.841A8,8,0,0,1,60.23,40.3c2.731-1.63,3.323-3.821,1.767-6.6a8.02,8.02,0,0,1,0-8.312c1.555-2.768.967-4.956-1.767-6.586a8.025,8.025,0,0,1-4.149-7.211c-.052-3.17-1.656-4.789-4.833-4.826a8.031,8.031,0,0,1-7.2-4.156Q41.6-1.484,37.455.845a8.02,8.02,0,0,1-8.312,0q-4.158-2.327-6.593,1.767a8.011,8.011,0,0,1-7.2,4.156c-3.17.037-4.781,1.656-4.826,4.826a8.057,8.057,0,0,1-4.156,7.211c-2.731,1.63-3.33,3.814-1.767,6.586a7.987,7.987,0,0,1,0,8.312q-2.344,4.164,1.767,6.6a8.016,8.016,0,0,1,4.156,7.189c.045,3.181,1.656,4.8,4.826,4.841a8.017,8.017,0,0,1,7.2,4.156q2.445,4.1,6.59,1.76a8.087,8.087,0,0,1,8.312,0Q41.607,60.585,44.044,56.486ZM33.306,46.935A17.387,17.387,0,1,1,50.69,29.544,17.388,17.388,0,0,1,33.306,46.935Z" transform="translate(4.034 0)" fill="#00cad6"/>
    <path id="Path_8" data-name="Path 8" d="M19.1,15.886c-3.341,0-3.788-1.555-3.788-1.555L2.268,39.978,12.731,38.8l5.786,8.707S30.572,22.357,30.572,22.524C24.325,22.368,26.81,16.054,19.1,15.886Z" transform="translate(0 38.992)" fill="#fff"/>
    <path id="Path_9" data-name="Path 9" d="M28.835,14.6c-9.533,1-7.594,3.364-9.775,5.2a6.71,6.71,0,0,1-5.641,2.151l14.716,25.32,3.62-9.376L42.048,39.24Z" transform="translate(30.342 39.727)" fill="#fff"/>
    <path id="Path_10" data-name="Path 10" d="M23.95,12.3,20.312,4.929,16.669,12.3,8.524,13.487l5.886,5.741-1.388,8.119,7.289-3.829L27.6,27.347l-1.388-8.119L32.1,13.487Z" transform="translate(17.021 13.411)" fill="#fff"/>
  </g>
</svg>
