<svg xmlns="http://www.w3.org/2000/svg" width="66.534" height="67.572" viewBox="0 0 66.534 67.572">
  <g id="choice-decision-check-choose-svgrepo-com" transform="translate(-607.873 -577.167)">
    <path id="Path_3" data-name="Path 3" d="M659.859,640.24a2.014,2.014,0,0,1-1.9-2.687c3.6-10.159,3.515-17.4-.242-21.509-6.566-7.186-22.53-3.223-22.691-3.17l-2.512.641V590.459l.032-.175a6.421,6.421,0,0,0-.552-4.2,1.41,1.41,0,0,0-1.227-.455,1.559,1.559,0,0,0-1.323.5,6.355,6.355,0,0,0-.7,4.095l.022.29v30.443l-2.326-.363c-3.557-.562-4.7.04-4.85.318-.924,1.813,4.129,9.386,10.6,15.887a2.015,2.015,0,0,1-2.856,2.844c-3.386-3.4-14.205-14.928-11.333-20.56,1.3-2.548,4.395-2.87,6.735-2.737v-25.7a9.921,9.921,0,0,1,1.656-7.15,5.574,5.574,0,0,1,4.37-1.891,5.394,5.394,0,0,1,4.318,1.9,9.951,9.951,0,0,1,1.456,7.3v17.638c5.323-.939,17.686-2.185,24.143,4.874,4.846,5.3,5.206,13.9,1.071,25.579A2.014,2.014,0,0,1,659.859,640.24Z" transform="translate(9.793 4.499)" fill="#fff"/>
    <path id="Path_4" data-name="Path 4" d="M617.662,595.791a4.431,4.431,0,0,1-3.146-1.3l-6.052-6.052a2.014,2.014,0,1,1,2.848-2.848l6.054,6.053a.425.425,0,0,0,.6,0l13.136-13.134a2.014,2.014,0,1,1,2.848,2.848l-13.138,13.136a4.432,4.432,0,0,1-3.154,1.3Z" transform="translate(0 0.762)" fill="#00cad6"/>
    <path id="Path_5" data-name="Path 5" d="M648.9,598.066a2.014,2.014,0,0,1-1.424-.59l-16.87-16.87a2.014,2.014,0,1,1,2.848-2.848l16.87,16.87a2.014,2.014,0,0,1-1.424,3.438Z" transform="translate(22.456 0)" fill="#00cad6"/>
    <path id="Path_6" data-name="Path 6" d="M632.03,598.065a2.014,2.014,0,0,1-1.424-3.438l16.87-16.87a2.014,2.014,0,1,1,2.848,2.848l-16.87,16.87A2.015,2.015,0,0,1,632.03,598.065Z" transform="translate(22.456 0)" fill="#00cad6"/>
  </g>
</svg>
