<svg xmlns="http://www.w3.org/2000/svg" width="125.036" height="36.635" viewBox="0 0 125.036 36.635">
  <g id="Group_32" data-name="Group 32" transform="translate(1638.485 179.076)">
    <path id="Path_150" data-name="Path 150" d="M119.877,163.95c.811-4.723,1.623-9.446,2.509-14.18a2.939,2.939,0,0,0-1.476-3.305h23.759a2.129,2.129,0,0,1,2.14,2.638c-.408,2.3-.812,4.587-1.255,6.881a3.24,3.24,0,0,1-3.1,2.638H128.584q-.221,1.344-.442,2.69a3.373,3.373,0,0,1-3.1,2.638Zm17.413-9.321a.945.945,0,0,0,.885-.678c.158-.937.305-1.874.517-2.815.084-.373-.3-.678-.664-.678h-7.969c-.221,1.4-.516,2.784-.738,4.171Z" transform="translate(-1758.362 -313.36)" fill="#05112e"/>
    <path id="Path_151" data-name="Path 151" d="M217.112,149.1c-.708,4.082-1.506,8.137-2.214,12.209a3.27,3.27,0,0,1-3.1,2.638H192.024a2.165,2.165,0,0,1-2.213-2.638q1.141-6.093,2.213-12.209a3.27,3.27,0,0,1,3.1-2.638H214.9a2.178,2.178,0,0,1,2.214,2.638m-18.521,10.854h8.116a.849.849,0,0,0,.738-.678c.453-2.709.957-5.422,1.475-8.143a.573.573,0,0,0-.59-.678h-8.043a.806.806,0,0,0-.811.678c-.518,2.721-.958,5.432-1.476,8.143a.543.543,0,0,0,.59.678" transform="translate(-1799.379 -313.36)" fill="#05112e"/>
    <path id="Path_152" data-name="Path 152" d="M291.115,146.465h9.666c2.657,3.065,5.313,6.131,8.043,9.186q.222-1.22.443-2.439c.221-1.367.443-2.732.738-4.108a3.178,3.178,0,0,1,3.1-2.638h5.165q-1.329,7.429-2.656,14.847a3.373,3.373,0,0,1-3.1,2.638h-4.944c-2.73-3.055-5.461-6.12-8.043-9.186-.443,2.189-.812,4.369-1.18,6.547a3.373,3.373,0,0,1-3.1,2.638h-5.165c.812-4.723,1.624-9.447,2.509-14.18a2.938,2.938,0,0,0-1.476-3.3" transform="translate(-1858.254 -313.36)" fill="#05112e"/>
    <path id="Path_153" data-name="Path 153" d="M377.463,153.211c-.3,1.334-.517,2.669-.738,3.993-.3,1.376-.517,2.742-.738,4.108a3.3,3.3,0,0,1-3.1,2.638h-5.239c.811-4.494,1.549-8.987,2.361-13.492h-8.19c.221-1.324.517-2.658.738-3.993h24.349a8.542,8.542,0,0,1-.295,1.356,3.3,3.3,0,0,1-3.1,2.637h-5.608l-.442,2.753" transform="translate(-1900.356 -313.36)" fill="#05112e"/>
    <path id="Path_154" data-name="Path 154" d="M233.795,121.324l1.775,3.3-17.311,8.553-4.1-7.538-31.871,15.209-.209,1.086a14.912,14.912,0,0,0-.283,4.91l.434,2.905,28.516-13.376,4.114,7.575,25.16-12.792,2.166,3.268,9.473-15.017Z" transform="translate(-1794.646 -297.481)" fill="#d5a206"/>
    <path id="Path_155" data-name="Path 155" d="M231.312,119.208l1.952,3.63-15.831,7.822-4.092-7.529-32.955,15.726-.288,1.5a15.688,15.688,0,0,0-.29,5.189l.6,4,28.814-13.516,4.126,7.6,25.22-12.822,2.465,3.718L252.1,116.979ZM241,131.478l-1.866-2.816-25.1,12.761-4.1-7.552-28.217,13.235-.271-1.808a14.145,14.145,0,0,1,.278-4.633l.13-.676L212.636,125.3l4.1,7.548,18.79-9.284-1.6-2.972,14.947-1.6Z" transform="translate(-1793.472 -296.055)" fill="#fff"/>
    <path id="Path_156" data-name="Path 156" d="M351.957,133.743a6.888,6.888,0,1,0,6.888,6.888,6.9,6.9,0,0,0-6.888-6.888m0,10.884a4,4,0,1,1,4-4,4,4,0,0,1-4,4" transform="translate(-1890.525 -305.894)" fill="#fff"/>
    <path id="Path_157" data-name="Path 157" d="M265.27,163.95h-5.165c.812-4.723,1.624-9.446,2.508-14.18a2.939,2.939,0,0,0-1.475-3.305h9.887a3.872,3.872,0,0,0-.148.907c-.369,1.949-.738,3.9-1.033,5.839-.3,1.334-.516,2.669-.737,3.993-.221,1.376-.443,2.743-.738,4.108a3.3,3.3,0,0,1-3.1,2.638" transform="translate(-1840.66 -313.36)" fill="#05112e"/>
    <path id="Path_158" data-name="Path 158" d="M164.627,195.984v3.455h-.477v-3.455h-.966v-.477h2.4v.477Z" transform="translate(-1783.778 -342.142)" fill="#093e7a"/>
    <path id="Path_159" data-name="Path 159" d="M164.562,199.373h-.787v-3.455h-.966v-.787h2.708v.787h-.955Zm-.477-.31h.167v-3.455h.955v-.168h-2.088v.168h.966Z" transform="translate(-1783.558 -341.922)" fill="#093e7a"/>
    <path id="Path_160" data-name="Path 160" d="M178.389,197.607v1.869h-.477v-.005H177.9v-3.977h.489v1.636h1.9v-1.636h.466v3.983h-.466v-1.869Z" transform="translate(-1792.416 -342.134)" fill="#093e7a"/>
    <path id="Path_161" data-name="Path 161" d="M180.693,199.411h-.776v-1.869h-1.593v1.869l-.787-.006-.012-.155v-4.132h.8v1.636h1.593v-1.636h.776Zm-.466-.31h.156v-3.673h-.156v1.636h-2.213v-1.636h-.179V199.1h.179v-1.869h2.213Z" transform="translate(-1792.195 -341.914)" fill="#093e7a"/>
    <path id="Path_162" data-name="Path 162" d="M195.972,199v.472h-2.216v-.006h-.012v-3.977h2.125v.472h-1.636v1.188h1.443v.46h-1.443V199Z" transform="translate(-1801.714 -342.134)" fill="#093e7a"/>
    <path id="Path_163" data-name="Path 163" d="M195.907,199.411l-2.526-.006-.012-.155v-4.132H195.8v.782h-1.636v.878h1.443v.77h-1.443v1.082h1.739Zm-2.227-.31H195.6v-.162h-1.739v-1.7H195.3v-.15h-1.443v-1.5H195.5v-.162H193.68Z" transform="translate(-1801.494 -341.914)" fill="#093e7a"/>
    <path id="Path_164" data-name="Path 164" d="M224.957,197.058a2.537,2.537,0,0,1,.029.358,2.119,2.119,0,0,1-.253,1.028,1.924,1.924,0,0,1-.693.736,1.842,1.842,0,0,1-.98.27,1.865,1.865,0,0,1-.989-.27,1.934,1.934,0,0,1-.7-.739,2.144,2.144,0,0,1-.256-1.043v-.005a2.146,2.146,0,0,1,.256-1.043,1.934,1.934,0,0,1,.7-.739,1.948,1.948,0,0,1,1.892-.048,1.946,1.946,0,0,1,.693.625l-.347.346a1.941,1.941,0,0,0-.594-.545,1.356,1.356,0,0,0-.656-.165,1.4,1.4,0,0,0-.744.2,1.431,1.431,0,0,0-.525.563,1.668,1.668,0,0,0-.19.8,1.761,1.761,0,0,0,.19.818,1.454,1.454,0,0,0,.525.58,1.426,1.426,0,0,0,1.46.017,1.5,1.5,0,0,0,.523-.529,1.631,1.631,0,0,0,.221-.756h-1.279v-.46Z" transform="translate(-1817.778 -342.045)" fill="#093e7a"/>
    <path id="Path_165" data-name="Path 165" d="M222.839,199.386a2.023,2.023,0,0,1-1.069-.292,2.088,2.088,0,0,1-.754-.8,2.419,2.419,0,0,1,0-2.239,2.065,2.065,0,0,1,2.8-.849,2.114,2.114,0,0,1,.747.673l.074.106-.563.563-.107-.141a1.794,1.794,0,0,0-.544-.5,1.272,1.272,0,0,0-1.246.036,1.286,1.286,0,0,0-.47.5,1.52,1.52,0,0,0-.172.723,1.616,1.616,0,0,0,.173.747,1.312,1.312,0,0,0,.47.519,1.267,1.267,0,0,0,1.3.016,1.331,1.331,0,0,0,.469-.475,1.437,1.437,0,0,0,.183-.521h-1.262v-.77h2.005l.019.133a2.728,2.728,0,0,1,.03.38,2.284,2.284,0,0,1-.272,1.1,2.08,2.08,0,0,1-.749.794,2,2,0,0,1-1.061.292m0-4.108a1.715,1.715,0,0,0-.908.247,1.784,1.784,0,0,0-.644.68,2.111,2.111,0,0,0,0,1.942,1.745,1.745,0,0,0,3.089,0,1.978,1.978,0,0,0,.234-.954c0-.063,0-.131-.011-.2h-1.424v.151h1.287l-.009.163a1.8,1.8,0,0,1-.243.826,1.654,1.654,0,0,1-.577.582,1.584,1.584,0,0,1-1.622-.019,1.615,1.615,0,0,1-.581-.639,1.922,1.922,0,0,1-.207-.889,1.827,1.827,0,0,1,.209-.868,1.573,1.573,0,0,1,2.137-.666,1.923,1.923,0,0,1,.533.45l.131-.131a1.784,1.784,0,0,0-.563-.473,1.74,1.74,0,0,0-.83-.2" transform="translate(-1817.558 -341.827)" fill="#093e7a"/>
    <path id="Path_166" data-name="Path 166" d="M239.885,197.955l-.528,1.432h-.511l.1-.25,1.409-3.8h.33l1.449,4.046h-.506l-.511-1.432Zm1.057-.477-.437-1.216-.449,1.216Z" transform="translate(-1828.183 -342.045)" fill="#093e7a"/>
    <path id="Path_167" data-name="Path 167" d="M242.028,199.322h-.835l-.511-1.432h-1.01l-.529,1.432H238.3l.178-.461,1.446-3.9h.546Zm-.617-.31h.177l-1.338-3.736h-.113l-1.387,3.736h.177l.528-1.432H240.9Zm-.571-1.6h-1.329l.673-1.823Zm-.884-.31h.444l-.219-.608Z" transform="translate(-1827.862 -341.825)" fill="#093e7a"/>
    <path id="Path_168" data-name="Path 168" d="M256.2,196.442v3.034h-.477v-.006h-.012v-3.977h.4l1.3,1.835,1.3-1.835h.392v3.983h-.483v-3.034l-1.063,1.5h-.284Z" transform="translate(-1838.08 -342.134)" fill="#093e7a"/>
    <path id="Path_169" data-name="Path 169" d="M259.035,199.411h-.793v-2.7l-.827,1.168h-.444l-.839-1.172v2.707l-.787-.006-.011-.155v-4.132h.632l1.221,1.722,1.221-1.722h.627Zm-.483-.31h.173v-3.673h-.157l-1.381,1.948-1.381-1.948h-.163V199.1h.179v-3.362l1.308,1.828h.124l1.3-1.832Z" transform="translate(-1837.86 -341.914)" fill="#093e7a"/>
    <path id="Path_170" data-name="Path 170" d="M275.072,199v.472h-2.216v-.006h-.012v-3.977h2.125v.472h-1.636v1.188h1.443v.46h-1.443V199Z" transform="translate(-1848.137 -342.134)" fill="#093e7a"/>
    <path id="Path_171" data-name="Path 171" d="M275.007,199.411l-2.526-.006-.012-.155v-4.132H274.9v.782h-1.636v.878h1.443v.77h-1.443v1.082h1.739Zm-2.227-.31H274.7v-.162h-1.739v-1.7H274.4v-.15h-1.443v-1.5H274.6v-.162H272.78Z" transform="translate(-1847.917 -341.914)" fill="#093e7a"/>
    <path id="Path_172" data-name="Path 172" d="M300.7,195.493v3.983h-.477v-.006h-.012v-3.977Z" transform="translate(-1864.201 -342.134)" fill="#093e7a"/>
    <path id="Path_173" data-name="Path 173" d="M300.639,199.411l-.787-.006-.012-.155v-4.132h.8Zm-.489-.31h.179v-3.673h-.179Z" transform="translate(-1863.98 -341.914)" fill="#093e7a"/>
    <path id="Path_174" data-name="Path 174" d="M310.828,199.323a1.422,1.422,0,0,1-.517-.435l.3-.341a1.28,1.28,0,0,0,.858.449.807.807,0,0,0,.44-.113.485.485,0,0,0,.224-.3.647.647,0,0,0,.012-.1.563.563,0,0,0-.1-.307.852.852,0,0,0-.276-.261c-.023-.012-.135-.073-.338-.185a4.8,4.8,0,0,1-.463-.281,1.328,1.328,0,0,1-.446-.486,1.09,1.09,0,0,1-.128-.6.911.911,0,0,1,.321-.642,1.063,1.063,0,0,1,.713-.245,1.485,1.485,0,0,1,.67.162,1.527,1.527,0,0,1,.54.446l-.358.29a1.8,1.8,0,0,0-.44-.326.945.945,0,0,0-.412-.094.577.577,0,0,0-.4.139.47.47,0,0,0-.153.366.61.61,0,0,0,.1.323.969.969,0,0,0,.273.285,2.708,2.708,0,0,0,.278.17c.117.064.195.108.233.131l.25.136a1.369,1.369,0,0,1,.466.43.974.974,0,0,1,.165.542,1.093,1.093,0,0,1-.017.187.964.964,0,0,1-.387.588,1.217,1.217,0,0,1-.739.224,1.467,1.467,0,0,1-.665-.156" transform="translate(-1870.126 -342.126)" fill="#093e7a"/>
    <path id="Path_175" data-name="Path 175" d="M311.21,199.415a1.624,1.624,0,0,1-.733-.173,1.571,1.571,0,0,1-.573-.481l-.074-.1.492-.557.116.115a1.145,1.145,0,0,0,.749.4.661.661,0,0,0,.358-.089.335.335,0,0,0,.157-.207c0-.023.007-.046.007-.06a.406.406,0,0,0-.074-.223.712.712,0,0,0-.227-.214c-.01,0-.125-.067-.332-.181a4.909,4.909,0,0,1-.478-.291,1.479,1.479,0,0,1-.493-.54,1.253,1.253,0,0,1-.145-.683,1.064,1.064,0,0,1,.375-.748,1.434,1.434,0,0,1,1.553-.1,1.7,1.7,0,0,1,.594.491l.091.12-.58.47-.1-.094a1.642,1.642,0,0,0-.4-.3.621.621,0,0,0-.645.02.317.317,0,0,0-.1.252.458.458,0,0,0,.074.243.815.815,0,0,0,.23.239,2.557,2.557,0,0,0,.263.161c.12.066.2.11.238.133l.245.133a1.535,1.535,0,0,1,.522.48,1.136,1.136,0,0,1,.19.628,1.24,1.24,0,0,1-.019.214,1.122,1.122,0,0,1-.447.687,1.375,1.375,0,0,1-.83.254m-.979-.741a1.278,1.278,0,0,0,.383.292h0a1.32,1.32,0,0,0,.595.14,1.057,1.057,0,0,0,.647-.195.808.808,0,0,0,.327-.5.937.937,0,0,0,.013-.154.815.815,0,0,0-.14-.458,1.215,1.215,0,0,0-.414-.38l-.246-.134c-.042-.025-.118-.068-.233-.131a2.9,2.9,0,0,1-.295-.181,1.122,1.122,0,0,1-.315-.33.772.772,0,0,1-.119-.4.623.623,0,0,1,.2-.481.921.921,0,0,1,.987-.07,1.7,1.7,0,0,1,.379.262l.131-.106a1.389,1.389,0,0,0-.388-.287,1.339,1.339,0,0,0-.6-.145.9.9,0,0,0-.613.208.755.755,0,0,0-.267.537.936.936,0,0,0,.11.514,1.179,1.179,0,0,0,.4.429,4.675,4.675,0,0,0,.452.274c.2.11.309.17.332.181a1.03,1.03,0,0,1,.337.316.716.716,0,0,1,.124.392.831.831,0,0,1-.013.122.644.644,0,0,1-.294.407.961.961,0,0,1-.524.138,1.318,1.318,0,0,1-.847-.382Z" transform="translate(-1869.843 -341.907)" fill="#093e7a"/>
    <path id="Path_176" data-name="Path 176" d="M338.9,199.18a1.925,1.925,0,0,1-.7-.739,2.139,2.139,0,0,1-.256-1.042v-.006a2.141,2.141,0,0,1,.256-1.043,1.934,1.934,0,0,1,.7-.739,1.952,1.952,0,0,1,1.98,0,1.908,1.908,0,0,1,.7.739,2.288,2.288,0,0,1,0,2.091,1.9,1.9,0,0,1-.7.739,1.956,1.956,0,0,1-1.983,0m1.733-.395a1.482,1.482,0,0,0,.528-.577,1.708,1.708,0,0,0,.193-.809,1.675,1.675,0,0,0-.193-.8,1.45,1.45,0,0,0-.528-.566,1.457,1.457,0,0,0-1.489,0,1.432,1.432,0,0,0-.525.563,1.665,1.665,0,0,0-.19.8,1.757,1.757,0,0,0,.19.818,1.456,1.456,0,0,0,.525.579,1.423,1.423,0,0,0,1.489,0" transform="translate(-1886.343 -342.045)" fill="#093e7a"/>
    <path id="Path_177" data-name="Path 177" d="M339.667,199.387a2.025,2.025,0,0,1-1.07-.292,2.088,2.088,0,0,1-.754-.8,2.419,2.419,0,0,1,0-2.239,2.067,2.067,0,0,1,2.9-.8,2.065,2.065,0,0,1,.755.8,2.443,2.443,0,0,1,0,2.238,2.069,2.069,0,0,1-.752.8,2.035,2.035,0,0,1-1.075.292m0-4.108a1.714,1.714,0,0,0-.908.247,1.783,1.783,0,0,0-.644.68,2.111,2.111,0,0,0,0,1.942,1.784,1.784,0,0,0,.644.681,1.808,1.808,0,0,0,1.821,0,1.763,1.763,0,0,0,.641-.68,2.134,2.134,0,0,0,0-1.944,1.762,1.762,0,0,0-.643-.68,1.734,1.734,0,0,0-.911-.247m0,3.654a1.529,1.529,0,0,1-.827-.234,1.605,1.605,0,0,1-.581-.639,1.916,1.916,0,0,1-.208-.889,1.826,1.826,0,0,1,.209-.868,1.589,1.589,0,0,1,.582-.622,1.588,1.588,0,0,1,2.234.625,1.835,1.835,0,0,1,.212.877,1.875,1.875,0,0,1-.211.882,1.643,1.643,0,0,1-.583.636,1.534,1.534,0,0,1-.827.234m0-3.171a1.254,1.254,0,0,0-.663.182,1.286,1.286,0,0,0-.47.5,1.521,1.521,0,0,0-.172.723,1.61,1.61,0,0,0,.173.747,1.306,1.306,0,0,0,.47.519,1.258,1.258,0,0,0,1.324,0h0a1.339,1.339,0,0,0,.474-.518,1.568,1.568,0,0,0,.175-.737,1.533,1.533,0,0,0-.175-.731,1.306,1.306,0,0,0-.473-.506,1.254,1.254,0,0,0-.663-.182" transform="translate(-1886.123 -341.828)" fill="#093e7a"/>
    <path id="Path_178" data-name="Path 178" d="M357.016,196.425v3.051h-.466v-.006h-.012v-3.977h.386l2.222,3.017v-3.017h.472v3.983h-.364Z" transform="translate(-1897.256 -342.134)" fill="#093e7a"/>
    <path id="Path_179" data-name="Path 179" d="M359.553,199.411h-.6l-2.005-2.733v2.733l-.775-.006-.012-.155v-4.132h.62l1.989,2.7v-2.7h.781Zm-.44-.31h.13v-3.673h-.162v3.334l-2.455-3.334h-.153V199.1h.167v-3.369Z" transform="translate(-1897.036 -341.914)" fill="#093e7a"/>
    <path id="Path_180" data-name="Path 180" d="M348.569,142.685a5.442,5.442,0,1,1,5.442,5.442,5.442,5.442,0,0,1-5.442-5.442" transform="translate(-1892.579 -307.948)" fill="#093e7a"/>
  </g>
</svg>
